<svg width="104" height="58" viewBox="0 0 104 58" fill="none" xmlns="http://www.w3.org/2000/svg">
<path d="M40.0206 38.9754C40.0206 48.6457 32.1801 56.4852 22.5108 56.4852C12.8396 56.4852 5.00073 48.6457 5.00073 38.9754C5.00073 29.3042 12.8396 21.4657 22.5108 21.4657C32.1801 21.4657 40.0206 29.3042 40.0206 38.9754Z" stroke="black" stroke-width="2" stroke-miterlimit="10"/>
<path d="M102.512 38.9754C102.512 48.6457 94.6721 56.4852 85.0017 56.4852C75.3305 56.4852 67.4919 48.6457 67.4919 38.9754C67.4919 29.3042 75.3305 21.4657 85.0017 21.4657C94.6721 21.4657 102.512 29.3042 102.512 38.9754Z" stroke="black" stroke-width="2" stroke-miterlimit="10"/>
<path d="M52.9517 37.9234L37.1115 13.5447L22.511 37.9234H52.9517ZM52.9517 37.9234L72.7499 18.1243C72.7499 18.1243 78.0707 12.1837 86.3623 15.6491" stroke="black" stroke-width="2" stroke-linecap="round" stroke-linejoin="round"/>
<path d="M56.0254 1H65.1964C66.7673 1 67.554 2.74651 68.078 4.75541C68.6029 6.76335 77.5104 32.7051 77.5104 32.7051C77.5104 32.7051 79.2577 38.4685 85.0012 38.9755" stroke="black" stroke-width="2" stroke-linecap="round" stroke-linejoin="round"/>
<path d="M34.3246 18.1992C27.8154 15.4104 8.77419 12.1781 1 29.7345" stroke="black" stroke-width="2" stroke-linecap="round" stroke-linejoin="round"/>
<path d="M46.0437 27.0137C52.0961 27.0137 65.5198 23.0189 69.332 8.64648" stroke="black" stroke-width="2" stroke-linecap="round" stroke-linejoin="round"/>
<path d="M46.0437 7.96692L37.2413 13.5445L30.2603 11.6067V7.96692H46.0437Z" fill="#FED801"/>
<path d="M46.0437 7.96692L37.2413 13.5445L30.2603 11.6067V7.96692H46.0437Z" stroke="black" stroke-width="2" stroke-linecap="round" stroke-linejoin="round"/>
<path d="M72.0579 6.3429H68.6777" stroke="black" stroke-width="2" stroke-miterlimit="10"/>
<path d="M72.0996 3.76517C72.2873 5.75047 72.4748 7.7356 72.6625 9.7209C72.8195 11.233 74.1644 12.334 75.671 12.2685C77.3147 12.1953 78.961 12.1953 80.6047 12.2685C82.1095 12.334 83.4544 11.233 83.6114 9.7209C83.7991 7.7356 83.9867 5.75047 84.1744 3.76517C80.1583 3.38557 76.1156 3.38557 72.0996 3.76517Z" fill="#40B4E4"/>
<path d="M72.0996 3.76517C72.2873 5.75047 72.4748 7.7356 72.6625 9.7209C72.8195 11.233 74.1644 12.334 75.671 12.2685C77.3147 12.1953 78.961 12.1953 80.6047 12.2685C82.1095 12.334 83.4544 11.233 83.6114 9.7209C83.7991 7.7356 83.9867 5.75047 84.1744 3.76517C80.1583 3.38557 76.1156 3.38557 72.0996 3.76517Z" stroke="black" stroke-width="2" stroke-linecap="round" stroke-linejoin="round"/>
<path d="M60.235 48.3155L52.8713 37.8422" stroke="black" stroke-width="2" stroke-linecap="round" stroke-linejoin="round"/>
<path d="M63.9443 48.6522L56.4392 48.9636" stroke="black" stroke-width="2" stroke-linecap="round" stroke-linejoin="round"/>
<path d="M19.1233 50.8452C13.5792 49.1502 9.8529 44.3254 9.28967 38.9001" stroke="black" stroke-width="2" stroke-miterlimit="10"/>
<path d="M83.6921 24.4508C89.4896 24.4508 94.4637 27.9754 96.5885 32.9989" stroke="black" stroke-width="2" stroke-miterlimit="10"/>
</svg>
