<svg width="500" height="334" viewBox="0 0 500 334" fill="none" xmlns="http://www.w3.org/2000/svg">
<rect width="500" height="333.33" rx="6" fill="#F6F7FB"/>
<path d="M240.738 161.889C240.738 169.754 234.361 176.131 226.496 176.131C218.63 176.131 212.254 169.754 212.254 161.889C212.254 154.022 218.63 147.646 226.496 147.646C234.361 147.646 240.738 154.022 240.738 161.889Z" stroke="#D2D2D2" stroke-width="1.2" stroke-miterlimit="10"/>
<path d="M291.568 161.889C291.568 169.754 285.192 176.131 277.326 176.131C269.46 176.131 263.084 169.754 263.084 161.889C263.084 154.022 269.46 147.646 277.326 147.646C285.192 147.646 291.568 154.022 291.568 161.889Z" stroke="#D2D2D2" stroke-width="1.2" stroke-miterlimit="10"/>
<path d="M251.256 161.033L238.372 141.204L226.497 161.033H251.256ZM251.256 161.033L267.36 144.929C267.36 144.929 271.688 140.097 278.432 142.915" stroke="#D2D2D2" stroke-width="1.2" stroke-linecap="round" stroke-linejoin="round"/>
<path d="M253.756 131H261.216C262.494 131 263.134 132.421 263.56 134.055C263.987 135.688 271.232 156.788 271.232 156.788C271.232 156.788 272.653 161.476 277.325 161.889" stroke="#D2D2D2" stroke-width="1.2" stroke-linecap="round" stroke-linejoin="round"/>
<path d="M236.106 144.989C230.811 142.721 215.323 140.092 209 154.372" stroke="#D2D2D2" stroke-width="1.2" stroke-linecap="round" stroke-linejoin="round"/>
<path d="M245.637 152.159C250.56 152.159 261.479 148.91 264.579 137.219" stroke="#D2D2D2" stroke-width="1.2" stroke-linecap="round" stroke-linejoin="round"/>
<path d="M245.638 136.667L238.479 141.203L232.8 139.627V136.667H245.638Z" stroke="#D2D2D2" stroke-width="1.2" stroke-linecap="round" stroke-linejoin="round"/>
<path d="M266.797 135.346H264.047" stroke="#D2D2D2" stroke-width="1.2" stroke-miterlimit="10"/>
<path d="M266.831 133.249C266.984 134.864 267.136 136.479 267.289 138.093C267.417 139.323 268.511 140.219 269.736 140.166C271.073 140.106 272.412 140.106 273.749 140.166C274.973 140.219 276.067 139.323 276.195 138.093C276.347 136.479 276.5 134.864 276.652 133.249C273.386 132.94 270.098 132.94 266.831 133.249Z" stroke="#D2D2D2" stroke-width="1.2" stroke-linecap="round" stroke-linejoin="round"/>
<path d="M252.307 171.336L251.155 160.986" stroke="#D2D2D2" stroke-width="1.2" stroke-linecap="round" stroke-linejoin="round"/>
<path d="M255.098 171.47L248.995 171.771" stroke="#D2D2D2" stroke-width="1.2" stroke-linecap="round" stroke-linejoin="round"/>
<path d="M218.979 168.857C215.703 165.466 214.954 160.564 216.692 156.482" stroke="#D2D2D2" stroke-width="1.2" stroke-miterlimit="10"/>
<path d="M281.6 151.25C285.724 153.536 287.874 158.004 287.405 162.416" stroke="#D2D2D2" stroke-width="1.2" stroke-miterlimit="10"/>
<path d="M223.145 199H222.063L214.707 188.049V199H213.617V186.203H214.707L222.072 197.163V186.203H223.145V199ZM225.57 194.104C225.57 193.19 225.746 192.367 226.098 191.635C226.455 190.902 226.956 190.334 227.601 189.93C228.251 189.52 228.986 189.314 229.807 189.314C231.072 189.314 232.098 189.76 232.883 190.65C233.668 191.535 234.061 192.71 234.061 194.175V194.395C234.061 195.314 233.882 196.144 233.524 196.882C233.173 197.614 232.675 198.18 232.03 198.578C231.386 198.977 230.65 199.176 229.824 199.176C228.564 199.176 227.539 198.733 226.748 197.849C225.963 196.958 225.57 195.78 225.57 194.315V194.104ZM226.625 194.395C226.625 195.531 226.918 196.466 227.504 197.198C228.096 197.925 228.869 198.288 229.824 198.288C230.773 198.288 231.541 197.925 232.127 197.198C232.719 196.466 233.015 195.502 233.015 194.307V194.104C233.015 193.378 232.88 192.713 232.61 192.109C232.341 191.506 231.963 191.04 231.477 190.712C230.99 190.378 230.434 190.211 229.807 190.211C228.869 190.211 228.104 190.58 227.513 191.318C226.921 192.051 226.625 193.012 226.625 194.201V194.395ZM242.182 199H241.101V186.203H242.182V199ZM246.374 189.49L246.409 191.037C246.761 190.463 247.2 190.032 247.728 189.745C248.255 189.458 248.841 189.314 249.485 189.314C250.985 189.314 251.938 189.93 252.342 191.16C252.682 190.568 253.136 190.114 253.704 189.798C254.272 189.476 254.899 189.314 255.585 189.314C257.624 189.314 258.664 190.428 258.705 192.654V199H257.65V192.733C257.645 191.884 257.46 191.254 257.097 190.844C256.739 190.434 256.153 190.229 255.339 190.229C254.583 190.24 253.944 190.486 253.423 190.967C252.901 191.441 252.611 192.021 252.553 192.707V199H251.498V192.654C251.492 191.84 251.299 191.233 250.918 190.835C250.543 190.431 249.963 190.229 249.178 190.229C248.516 190.229 247.947 190.419 247.473 190.8C246.998 191.175 246.646 191.734 246.418 192.479V199H245.363V189.49H246.374ZM267.38 199C267.274 198.701 267.207 198.259 267.178 197.673C266.809 198.153 266.337 198.525 265.763 198.789C265.194 199.047 264.591 199.176 263.952 199.176C263.038 199.176 262.297 198.921 261.729 198.411C261.166 197.901 260.885 197.257 260.885 196.478C260.885 195.552 261.269 194.819 262.036 194.28C262.81 193.741 263.885 193.472 265.262 193.472H267.169V192.391C267.169 191.711 266.958 191.178 266.536 190.791C266.12 190.398 265.511 190.202 264.708 190.202C263.976 190.202 263.369 190.39 262.889 190.765C262.408 191.14 262.168 191.591 262.168 192.118L261.113 192.109C261.113 191.354 261.465 190.7 262.168 190.149C262.871 189.593 263.735 189.314 264.761 189.314C265.821 189.314 266.656 189.581 267.266 190.114C267.881 190.642 268.197 191.38 268.215 192.329V196.829C268.215 197.749 268.312 198.438 268.505 198.895V199H267.38ZM264.075 198.244C264.778 198.244 265.405 198.074 265.956 197.734C266.513 197.395 266.917 196.94 267.169 196.372V194.28H265.288C264.239 194.292 263.419 194.485 262.827 194.86C262.235 195.229 261.939 195.739 261.939 196.39C261.939 196.923 262.136 197.365 262.528 197.717C262.927 198.068 263.442 198.244 264.075 198.244ZM270.605 194.157C270.605 192.669 270.934 191.491 271.59 190.624C272.252 189.751 273.148 189.314 274.279 189.314C275.574 189.314 276.559 189.83 277.232 190.861L277.285 189.49H278.27V198.807C278.27 200.031 277.927 201.001 277.241 201.716C276.556 202.431 275.627 202.788 274.455 202.788C273.793 202.788 273.16 202.639 272.557 202.34C271.959 202.047 271.487 201.654 271.142 201.162L271.73 200.529C272.475 201.443 273.359 201.9 274.385 201.9C275.264 201.9 275.949 201.64 276.441 201.118C276.934 200.603 277.188 199.885 277.206 198.965V197.77C276.532 198.707 275.551 199.176 274.262 199.176C273.16 199.176 272.275 198.736 271.607 197.857C270.939 196.979 270.605 195.792 270.605 194.298V194.157ZM271.669 194.342C271.669 195.555 271.912 196.513 272.398 197.216C272.885 197.913 273.57 198.262 274.455 198.262C275.75 198.262 276.667 197.682 277.206 196.521V192.101C276.96 191.491 276.605 191.028 276.143 190.712C275.68 190.39 275.123 190.229 274.473 190.229C273.588 190.229 272.899 190.577 272.407 191.274C271.915 191.966 271.669 192.988 271.669 194.342ZM284.694 199.176C283.886 199.176 283.153 198.977 282.497 198.578C281.847 198.18 281.34 197.626 280.977 196.917C280.613 196.202 280.432 195.402 280.432 194.518V194.14C280.432 193.226 280.607 192.402 280.959 191.67C281.316 190.938 281.812 190.363 282.444 189.947C283.077 189.525 283.763 189.314 284.501 189.314C285.655 189.314 286.569 189.71 287.243 190.501C287.923 191.286 288.263 192.361 288.263 193.727V194.315H281.478V194.518C281.478 195.596 281.785 196.495 282.4 197.216C283.021 197.931 283.801 198.288 284.738 198.288C285.301 198.288 285.796 198.186 286.224 197.98C286.657 197.775 287.05 197.447 287.401 196.996L288.061 197.497C287.287 198.616 286.165 199.176 284.694 199.176ZM284.501 190.211C283.71 190.211 283.042 190.501 282.497 191.081C281.958 191.661 281.63 192.44 281.513 193.419H287.217V193.305C287.188 192.391 286.927 191.646 286.435 191.072C285.942 190.498 285.298 190.211 284.501 190.211Z" fill="#D2D2D2"/>
</svg>
