<svg width="75" height="75" viewBox="0 0 75 75" fill="none" xmlns="http://www.w3.org/2000/svg">
<rect width="75" height="75" rx="6" fill="#F6F7FB"/>
<path d="M33.6852 35.4385C33.6852 38.5821 31.1364 41.1306 27.993 41.1306C24.8491 41.1306 22.3008 38.5821 22.3008 35.4385C22.3008 32.2945 24.8491 29.7463 27.993 29.7463C31.1364 29.7463 33.6852 32.2945 33.6852 35.4385Z" stroke="#D2D2D2" stroke-width="0.7" stroke-miterlimit="10"/>
<path d="M54.0001 35.4385C54.0001 38.5821 51.4516 41.1306 48.3079 41.1306C45.1639 41.1306 42.6157 38.5821 42.6157 35.4385C42.6157 32.2945 45.1639 29.7463 48.3079 29.7463C51.4516 29.7463 54.0001 32.2945 54.0001 35.4385Z" stroke="#D2D2D2" stroke-width="0.7" stroke-miterlimit="10"/>
<path d="M37.8885 35.0965L32.7391 27.1713L27.9927 35.0965H37.8885ZM37.8885 35.0965L44.3246 28.6601C44.3246 28.6601 46.0543 26.7289 48.7497 27.8555" stroke="#D2D2D2" stroke-width="0.7" stroke-linecap="round" stroke-linejoin="round"/>
<path d="M38.8877 23.0932H41.8691C42.3797 23.0932 42.6355 23.661 42.8058 24.3141C42.9765 24.9668 45.8721 33.4001 45.8721 33.4001C45.8721 33.4001 46.4402 35.2737 48.3073 35.4385" stroke="#D2D2D2" stroke-width="0.7" stroke-linecap="round" stroke-linejoin="round"/>
<path d="M31.8333 28.6844C29.7173 27.7778 23.5273 26.7271 21 32.4344" stroke="#D2D2D2" stroke-width="0.7" stroke-linecap="round" stroke-linejoin="round"/>
<path d="M35.6431 31.5499C37.6106 31.5499 41.9745 30.2512 43.2137 25.579" stroke="#D2D2D2" stroke-width="0.7" stroke-linecap="round" stroke-linejoin="round"/>
<path d="M35.6432 25.3581L32.7816 27.1713L30.5122 26.5413V25.3581H35.6432Z" stroke="#D2D2D2" stroke-width="0.7" stroke-linecap="round" stroke-linejoin="round"/>
<path d="M44.0998 24.8301H43.001" stroke="#D2D2D2" stroke-width="0.7" stroke-miterlimit="10"/>
<path d="M44.1133 23.9922C44.1743 24.6376 44.2353 25.2829 44.2963 25.9283C44.3473 26.4198 44.7845 26.7777 45.2743 26.7565C45.8086 26.7327 46.3438 26.7327 46.8782 26.7565C47.3674 26.7777 47.8046 26.4198 47.8556 25.9283C47.9166 25.2829 47.9776 24.6376 48.0386 23.9922C46.733 23.8688 45.4188 23.8688 44.1133 23.9922Z" stroke="#D2D2D2" stroke-width="0.7" stroke-linecap="round" stroke-linejoin="round"/>
<path d="M38.3088 39.2143L37.8481 35.0778" stroke="#D2D2D2" stroke-width="0.7" stroke-linecap="round" stroke-linejoin="round"/>
<path d="M39.4238 39.2679L36.9849 39.3882" stroke="#D2D2D2" stroke-width="0.7" stroke-linecap="round" stroke-linejoin="round"/>
<path d="M24.9883 38.2237C23.6788 36.8682 23.3794 34.9092 24.0741 33.2777" stroke="#D2D2D2" stroke-width="0.7" stroke-miterlimit="10"/>
<path d="M50.0161 31.1868C51.6646 32.1002 52.5237 33.8861 52.3364 35.6493" stroke="#D2D2D2" stroke-width="0.7" stroke-miterlimit="10"/>
<path d="M24.9531 53H24.4727L21.2031 48.1328V53H20.7188V47.3125H21.2031L24.4766 52.1836V47.3125H24.9531V53ZM26.0312 50.8242C26.0312 50.418 26.1094 50.0521 26.2656 49.7266C26.4245 49.401 26.6471 49.1484 26.9336 48.9688C27.2227 48.7865 27.5495 48.6953 27.9141 48.6953C28.4766 48.6953 28.9323 48.8932 29.2812 49.2891C29.6302 49.6823 29.8047 50.2044 29.8047 50.8555V50.9531C29.8047 51.362 29.7253 51.7305 29.5664 52.0586C29.4102 52.3841 29.1888 52.6354 28.9023 52.8125C28.6159 52.9896 28.2891 53.0781 27.9219 53.0781C27.362 53.0781 26.9062 52.8815 26.5547 52.4883C26.2057 52.0924 26.0312 51.569 26.0312 50.918V50.8242ZM26.5 50.9531C26.5 51.4583 26.6302 51.8737 26.8906 52.1992C27.1536 52.5221 27.4974 52.6836 27.9219 52.6836C28.3438 52.6836 28.6849 52.5221 28.9453 52.1992C29.2083 51.8737 29.3398 51.4453 29.3398 50.9141V50.8242C29.3398 50.5013 29.2799 50.2057 29.1602 49.9375C29.0404 49.6693 28.8724 49.4622 28.6562 49.3164C28.4401 49.168 28.1927 49.0938 27.9141 49.0938C27.4974 49.0938 27.1576 49.2578 26.8945 49.5859C26.6315 49.9115 26.5 50.3385 26.5 50.8672V50.9531ZM33.4141 53H32.9336V47.3125H33.4141V53ZM35.2773 48.7734L35.293 49.4609C35.4492 49.2057 35.6445 49.0143 35.8789 48.8867C36.1133 48.7591 36.3737 48.6953 36.6602 48.6953C37.3268 48.6953 37.75 48.9688 37.9297 49.5156C38.0807 49.2526 38.2826 49.0508 38.5352 48.9102C38.7878 48.7669 39.0664 48.6953 39.3711 48.6953C40.2773 48.6953 40.7396 49.1901 40.7578 50.1797V53H40.2891V50.2148C40.2865 49.8372 40.2044 49.5573 40.043 49.375C39.8841 49.1927 39.6237 49.1016 39.2617 49.1016C38.9258 49.1068 38.6419 49.2161 38.4102 49.4297C38.1784 49.6406 38.0495 49.8984 38.0234 50.2031V53H37.5547V50.1797C37.5521 49.8177 37.4661 49.5482 37.2969 49.3711C37.1302 49.1914 36.8724 49.1016 36.5234 49.1016C36.2292 49.1016 35.9766 49.1862 35.7656 49.3555C35.5547 49.5221 35.3984 49.7708 35.2969 50.1016V53H34.8281V48.7734H35.2773ZM44.6133 53C44.5664 52.8672 44.5365 52.6706 44.5234 52.4102C44.3594 52.6237 44.1497 52.7891 43.8945 52.9062C43.6419 53.0208 43.3737 53.0781 43.0898 53.0781C42.6836 53.0781 42.3542 52.9648 42.1016 52.7383C41.8516 52.5117 41.7266 52.2253 41.7266 51.8789C41.7266 51.4674 41.8971 51.1419 42.2383 50.9023C42.582 50.6628 43.0599 50.543 43.6719 50.543H44.5195V50.0625C44.5195 49.7604 44.4258 49.5234 44.2383 49.3516C44.0534 49.1771 43.7826 49.0898 43.4258 49.0898C43.1003 49.0898 42.8307 49.1732 42.6172 49.3398C42.4036 49.5065 42.2969 49.707 42.2969 49.9414L41.8281 49.9375C41.8281 49.6016 41.9844 49.3112 42.2969 49.0664C42.6094 48.819 42.9935 48.6953 43.4492 48.6953C43.9206 48.6953 44.2917 48.8138 44.5625 49.0508C44.8359 49.2852 44.9766 49.6133 44.9844 50.0352V52.0352C44.9844 52.444 45.0273 52.75 45.1133 52.9531V53H44.6133ZM43.1445 52.6641C43.457 52.6641 43.7357 52.5885 43.9805 52.4375C44.2279 52.2865 44.4076 52.0846 44.5195 51.832V50.9023H43.6836C43.2174 50.9076 42.8529 50.9935 42.5898 51.1602C42.3268 51.3242 42.1953 51.5508 42.1953 51.8398C42.1953 52.0768 42.2826 52.2734 42.457 52.4297C42.6341 52.5859 42.8633 52.6641 43.1445 52.6641ZM46.0469 50.8477C46.0469 50.1862 46.1927 49.6628 46.4844 49.2773C46.7786 48.8893 47.1771 48.6953 47.6797 48.6953C48.2552 48.6953 48.6927 48.9245 48.9922 49.3828L49.0156 48.7734H49.4531V52.9141C49.4531 53.4583 49.3008 53.8893 48.9961 54.207C48.6914 54.5247 48.2786 54.6836 47.7578 54.6836C47.4635 54.6836 47.1823 54.6172 46.9141 54.4844C46.6484 54.3542 46.4388 54.1797 46.2852 53.9609L46.5469 53.6797C46.8776 54.0859 47.2708 54.2891 47.7266 54.2891C48.1172 54.2891 48.4219 54.1732 48.6406 53.9414C48.8594 53.7122 48.9727 53.3932 48.9805 52.9844V52.4531C48.681 52.8698 48.2448 53.0781 47.6719 53.0781C47.1823 53.0781 46.7891 52.8828 46.4922 52.4922C46.1953 52.1016 46.0469 51.5742 46.0469 50.9102V50.8477ZM46.5195 50.9297C46.5195 51.4688 46.6276 51.8945 46.8438 52.207C47.0599 52.5169 47.3646 52.6719 47.7578 52.6719C48.3333 52.6719 48.7409 52.4141 48.9805 51.8984V49.9336C48.8711 49.6628 48.7135 49.457 48.5078 49.3164C48.3021 49.1732 48.0547 49.1016 47.7656 49.1016C47.3724 49.1016 47.0664 49.2565 46.8477 49.5664C46.6289 49.8737 46.5195 50.3281 46.5195 50.9297ZM52.3086 53.0781C51.9492 53.0781 51.6237 52.9896 51.332 52.8125C51.043 52.6354 50.8177 52.3893 50.6562 52.0742C50.4948 51.7565 50.4141 51.401 50.4141 51.0078V50.8398C50.4141 50.4336 50.4922 50.0677 50.6484 49.7422C50.8073 49.4167 51.0273 49.1615 51.3086 48.9766C51.5898 48.7891 51.8945 48.6953 52.2227 48.6953C52.7357 48.6953 53.1419 48.8711 53.4414 49.2227C53.7435 49.5716 53.8945 50.0495 53.8945 50.6562V50.918H50.8789V51.0078C50.8789 51.487 51.0156 51.8867 51.2891 52.207C51.5651 52.5247 51.9115 52.6836 52.3281 52.6836C52.5781 52.6836 52.7982 52.638 52.9883 52.5469C53.181 52.4557 53.3555 52.3099 53.5117 52.1094L53.8047 52.332C53.4609 52.8294 52.9622 53.0781 52.3086 53.0781ZM52.2227 49.0938C51.8711 49.0938 51.5742 49.2227 51.332 49.4805C51.0924 49.7383 50.9466 50.0846 50.8945 50.5195H53.4297V50.4688C53.4167 50.0625 53.3008 49.7318 53.082 49.4766C52.8633 49.2214 52.5768 49.0938 52.2227 49.0938Z" fill="#D2D2D2"/>
</svg>
