<svg width="14" height="15" viewBox="0 0 14 15" fill="none" xmlns="http://www.w3.org/2000/svg">
<path d="M7 0.333252C10.871 0.333252 14 3.46925 14 7.33325C14 11.2043 10.871 14.3333 7 14.3333C3.136 14.3333 0 11.2043 0 7.33325C0 3.46925 3.136 0.333252 7 0.333252ZM6.755 3.78425C6.468 3.78425 6.23 4.01525 6.23 4.30925V7.84425C6.23 8.02625 6.328 8.19425 6.489 8.29225L9.233 9.93025C9.317 9.97925 9.408 10.0073 9.506 10.0073C9.681 10.0073 9.856 9.91625 9.954 9.74825C10.101 9.50325 10.024 9.18125 9.772 9.02725L7.28 7.54325V4.30925C7.28 4.01525 7.042 3.78425 6.755 3.78425Z" fill="#FED801"/>
</svg>
